<svg xmlns="http://www.w3.org/2000/svg" viewBox="0 0 496 376">
  <defs>
    <linearGradient x1="100%" y1="50%" x2="0%" y2="50%" id="a">
      <stop stop-color="#124665" offset="0%" />
      <stop stop-color="#8033B0" offset="100%" />
    </linearGradient>
  </defs>
  <path d="M17.98942 207.22635c5.22751-5.2327 13.06878-5.2327 18.2963 0 39.06261 36.6056 75.6552 73.23454 109.77777 109.88683C351.67901 112.16552 456.22928 7.94745 459.7143 4.45898c3.9427-3.94662 14.37566-5.23271 19.60317 0l11.7619 13.08176c5.22752 5.2327 5.22752 13.08177 0 18.31447l-334.56084 336.2014c-3.92064 3.92452-15.68254 3.92452-19.60318 0C52.40388 286.58905 8.40564 242.11105 4.92064 238.62258c-5.22752-5.2327-5.22752-13.08177 0-18.31447l13.06878-13.08177z" stroke="#75B7DD" fill="url(#a)" fill-rule="evenodd" />
</svg>
